<svg version="1.2" xmlns="http://www.w3.org/2000/svg" xmlns:xlink="http://www.w3.org/1999/xlink" overflow="visible" preserveAspectRatio="none" viewBox="0 0 24 24" width="46" height="46"><g><path xmlns:default="http://www.w3.org/2000/svg" id="google" d="M12.2,10.85v2.75h4.54c-0.05,0.28-0.12,0.55-0.23,0.81c-0.14,0.33-0.32,0.63-0.54,0.91  c-0.24,0.32-0.53,0.61-0.85,0.85c-0.38,0.27-0.8,0.48-1.25,0.62c-0.54,0.17-1.1,0.26-1.67,0.25c-0.87,0-1.73-0.23-2.48-0.68  c-2.37-1.43-3.17-4.49-1.81-6.9C8.34,8.7,8.96,8.07,9.72,7.63C10.47,7.2,11.33,6.98,12.2,7c1.19-0.03,2.34,0.41,3.19,1.24l2.17-2.14  C16.11,4.72,14.19,3.97,12.2,4c-1.09-0.01-2.16,0.2-3.16,0.63c-1.91,0.81-3.42,2.34-4.2,4.26c-0.84,1.99-0.84,4.24,0,6.23  c0.78,1.92,2.29,3.44,4.2,4.25c0.98,0.42,2.04,0.63,3.11,0.63c1.4,0.02,2.78-0.32,4-1c1.15-0.64,2.09-1.61,2.7-2.77  c0.64-1.23,0.97-2.61,0.95-4c0-0.45-0.04-0.89-0.12-1.33H12.2V10.85z" style="fill: rgb(0, 159, 227);" vector-effect="non-scaling-stroke"/></g></svg>