<svg version="1.2" xmlns="http://www.w3.org/2000/svg" xmlns:xlink="http://www.w3.org/1999/xlink" overflow="visible" preserveAspectRatio="none" viewBox="0 0 19.54545454545456 19.545454545454536" width="19.54545454545456" height="19.545454545454536"><g transform="translate(0, 0)"><defs><path id="path-1614940889437301" d="M19.545454545454565 9.32851239669421 C19.545454545454565 9.32851239669421 10.216942148760339 9.32851239669421 10.216942148760339 9.32851239669421 C10.216942148760339 9.32851239669421 10.216942148760339 0 10.216942148760339 0 C10.216942148760339 0 9.328512396694226 0 9.328512396694226 0 C9.328512396694226 0 9.328512396694226 9.32851239669421 9.328512396694226 9.32851239669421 C9.328512396694226 9.32851239669421 0 9.32851239669421 0 9.32851239669421 C0 9.32851239669421 0 10.216942148760321 0 10.216942148760321 C0 10.216942148760321 9.328512396694226 10.216942148760321 9.328512396694226 10.216942148760321 C9.328512396694226 10.216942148760321 9.328512396694226 19.54545454545454 9.328512396694226 19.54545454545454 C9.328512396694226 19.54545454545454 10.216942148760339 19.54545454545454 10.216942148760339 19.54545454545454 C10.216942148760339 19.54545454545454 10.216942148760339 10.216942148760321 10.216942148760339 10.216942148760321 C10.216942148760339 10.216942148760321 19.545454545454565 10.216942148760321 19.545454545454565 10.216942148760321 C19.545454545454565 10.216942148760321 19.545454545454565 9.32851239669421 19.545454545454565 9.32851239669421 Z" vector-effect="non-scaling-stroke"/></defs><g transform="translate(0, 0)"><path d="M19.545454545454565 9.32851239669421 C19.545454545454565 9.32851239669421 10.216942148760339 9.32851239669421 10.216942148760339 9.32851239669421 C10.216942148760339 9.32851239669421 10.216942148760339 0 10.216942148760339 0 C10.216942148760339 0 9.328512396694226 0 9.328512396694226 0 C9.328512396694226 0 9.328512396694226 9.32851239669421 9.328512396694226 9.32851239669421 C9.328512396694226 9.32851239669421 0 9.32851239669421 0 9.32851239669421 C0 9.32851239669421 0 10.216942148760321 0 10.216942148760321 C0 10.216942148760321 9.328512396694226 10.216942148760321 9.328512396694226 10.216942148760321 C9.328512396694226 10.216942148760321 9.328512396694226 19.54545454545454 9.328512396694226 19.54545454545454 C9.328512396694226 19.54545454545454 10.216942148760339 19.54545454545454 10.216942148760339 19.54545454545454 C10.216942148760339 19.54545454545454 10.216942148760339 10.216942148760321 10.216942148760339 10.216942148760321 C10.216942148760339 10.216942148760321 19.545454545454565 10.216942148760321 19.545454545454565 10.216942148760321 C19.545454545454565 10.216942148760321 19.545454545454565 9.32851239669421 19.545454545454565 9.32851239669421 Z" style="stroke-width: 0; stroke-linecap: butt; stroke-linejoin: miter; fill: rgb(24, 24, 24);" vector-effect="non-scaling-stroke"/></g></g></svg>