<svg version="1.2" xmlns="http://www.w3.org/2000/svg" xmlns:xlink="http://www.w3.org/1999/xlink" overflow="visible" preserveAspectRatio="none" viewBox="0 0 193 193" width="193" height="193"><g transform="translate(0, 0)"><defs><path id="path-16151913517861448" d="M0 0 C0 0 192.99999999999983 0 192.99999999999983 0 C192.99999999999983 0 192.99999999999983 6.000000000000597 192.99999999999983 6.000000000000597 C192.99999999999983 109.27724821260061 109.27724821259982 193.00000000000063 5.999999999999801 193.00000000000063 C5.999999999999801 193.00000000000063 0 193.00000000000063 0 193.00000000000063 C0 193.00000000000063 0 0 0 0 Z" vector-effect="non-scaling-stroke"/></defs><g transform="translate(0, 0)"><path d="M0 0 C0 0 192.99999999999983 0 192.99999999999983 0 C192.99999999999983 0 192.99999999999983 6.000000000000597 192.99999999999983 6.000000000000597 C192.99999999999983 109.27724821260061 109.27724821259982 193.00000000000063 5.999999999999801 193.00000000000063 C5.999999999999801 193.00000000000063 0 193.00000000000063 0 193.00000000000063 C0 193.00000000000063 0 0 0 0 Z" style="stroke: rgb(140, 140, 140); stroke-width: 0; stroke-linecap: butt; stroke-linejoin: miter; fill: rgb(0, 159, 227);" vector-effect="non-scaling-stroke"/></g></g></svg>