<svg version="1.2" xmlns="http://www.w3.org/2000/svg" xmlns:xlink="http://www.w3.org/1999/xlink" overflow="visible" preserveAspectRatio="none" viewBox="0 -11.501079913606912 50 50" width="25" height="25"><g><g xmlns:default="http://www.w3.org/2000/svg">
	<g>
		<path d="M49.8,12.9C49.4,12.3,38.7,0,25.2,0C11.7,0,1,12.3,0.6,12.9L0,13.5l0.6,0.6C1,14.7,11.7,27,25.2,27    c13.5,0,24.2-12.3,24.6-12.9l0.6-0.6L49.8,12.9z M25.2,25C14.3,25,5.1,16,2.7,13.5C5.1,11,14.3,2,25.2,2C36,2,45.3,11,47.7,13.5    C45.3,16,36,25,25.2,25z M25.2,6.8c-3.7,0-6.7,3-6.7,6.7c0,3.7,3,6.7,6.7,6.7s6.7-3,6.7-6.7C31.9,9.8,28.9,6.8,25.2,6.8z     M25.2,18.2c-2.6,0-4.7-2.1-4.7-4.7c0-2.6,2.1-4.7,4.7-4.7c2.6,0,4.7,2.1,4.7,4.7C29.9,16.1,27.8,18.2,25.2,18.2z" style="fill: rgb(102, 102, 102);" vector-effect="non-scaling-stroke"/>
	</g>
</g></g></svg>